<svg xmlns="http://www.w3.org/2000/svg" width="1024" height="1024" viewBox="0 0 1024 1024"><g transform="translate(-11047.5 -7306.5)"><rect width="1024" height="1024" transform="translate(11047.5 7306.5)" fill="none"/><g transform="translate(1149.99 -40.351)"><path d="M9898.01,8044.577l76.6,106.5,141.4-67.061,74.521,62.288,147.376-58.395,62.286,56.726,145.15-60.619,56.726,60.063,158.666-50.3c40.136-61.85,94.845-132.758,160.555-184.9C10921.294,7908.88,10380.177,7853.267,9898.01,8044.577Z" transform="translate(0.001 46.063)" fill="#ea4335"/><path d="M10882.462,8149.8l-76.8,42.659-51.721-42.822-157.386,49.5-56.726-60.062-145.15,60.618-62.286-56.726-147.376,58.394-74.521-62.286-150.5,71.379,34.981,48.755,115.521-54.789,74.521,62.287,147.376-58.395,62.286,56.727,145.15-60.619,56.726,60.063,157.386-49.5,51.721,42.822,110.33-61.28Z" transform="translate(5.522 67.241)" fill="#4285f4"/><path d="M10387.238,7910.631a2741.848,2741.848,0,0,1,355.092-17.292c-21.258-477.322-467.468-508.988-467.468-508.988C10392.039,7593.468,10391.612,7828.876,10387.238,7910.631Z" transform="translate(33.575)" fill="#fbbc04"/><path d="M10242.387,7442.958l-.51-.4s-58.361,279.627-270.945,559.254c118.378-40.182,238.3-66.732,351.142-84.016C10326.334,7856.813,10332.852,7646.158,10242.387,7442.958Z" transform="translate(6.497 5.187)" fill="#fbbc04"/></g></g></svg>